<svg width="1792" height="1792" viewBox="0 0 1792 1792" xmlns="http://www.w3.org/2000/svg"><path d="m 537.4258,945.2438 0,629.4466 372.83494,0 q 187.56816,0 277.32476,-77.0985 90.9073,-78.2493 90.9073,-238.2001 0,-161.1016 -90.9073,-237.0494 -89.7566,-77.0986 -277.32476,-77.0986 l -372.83494,0 z m 0,-706.54523 0,517.82631 344.06681,0 q 170.30729,0 253.15949,-63.28988 84.003,-64.44061 84.003,-195.62327 0,-130.03194 -84.003,-194.47255 -82.8522,-64.44061 -253.15949,-64.44061 l -344.06681,0 z M 304.97933,47.678202 l 593.77416,0 q 265.81751,0 409.65811,110.469608 143.8407,110.46962 143.8407,314.14796 0,157.64935 -73.6464,250.85808 -73.6464,93.20874 -216.3364,116.22324 171.4581,36.8232 265.8175,154.19717 95.5102,116.22324 95.5102,291.13344 0,230.145 -156.4986,355.5741 -156.4986,125.429 -445.33061,125.429 l -616.78866,0 0,-1718.032598 z"/></svg>

