<svg width="1792" height="1792" viewBox="0 0 1792 1792" xmlns="http://www.w3.org/2000/svg"><path d="m 1575.3799,180.01159 0,245.10445 q -117.374,-109.31888 -250.8581,-163.40296 -132.3334,-54.08409 -281.9277,-54.08409 -294.5856,0 -451.08422,180.66385 -156.49861,179.51312 -156.49861,520.12776 0,339.4639 156.49861,520.1278 156.49862,179.5131 451.08422,179.5131 149.5943,0 281.9277,-54.0841 133.4841,-54.0841 250.8581,-163.403 l 0,242.803 q -121.9769,82.8522 -258.9132,124.2783 -135.7856,41.4261 -287.6813,41.4261 -390.09579,0 -614.48719,-238.2001 -224.3914,-239.3508 -224.3914,-652.4611 0,-414.26105 224.3914,-652.46115 224.3914,-239.350826 614.48719,-239.350826 154.1972,0 289.9828,41.426104 136.9363,40.275379 256.6117,121.976862 z"/></svg>
